<?xml version="1.0" standalone="no"?>
<!DOCTYPE svg PUBLIC "-//W3C//DTD SVG 20010904//EN"
 "http://www.w3.org/TR/2001/REC-SVG-20010904/DTD/svg10.dtd">
<svg version="1.0" xmlns="http://www.w3.org/2000/svg"
 width="260.000000pt" height="260.000000pt" viewBox="0 0 260.000000 260.000000"
 preserveAspectRatio="xMidYMid meet">
<metadata>
Created by potrace 1.14, written by Peter Selinger 2001-2017
</metadata>
<g transform="translate(0.000000,260.000000) scale(0.100000,-0.100000)"
fill="#000000" stroke="none">
<path d="M1145 2594 c-75 -11 -223 -48 -298 -75 -342 -125 -641 -424 -765
-765 -62 -169 -76 -253 -76 -444 -1 -196 8 -259 61 -420 40 -122 102 -242 181
-353 68 -95 241 -264 326 -319 l61 -39 3 930 2 931 175 0 175 0 0 -30 0 -30
310 0 310 0 0 30 0 30 175 0 175 0 0 -930 c0 -511 4 -930 8 -930 18 0 177 126
247 194 188 187 324 447 370 712 19 112 19 317 0 430 -21 120 -76 279 -136
392 l-49 92 0 160 0 160 -25 0 c-22 0 -25 4 -25 40 0 29 -5 42 -19 50 -27 14
-104 13 -119 -2 -7 -7 -12 -42 -12 -85 0 -40 -3 -73 -6 -73 -4 0 -23 15 -43
33 -145 131 -371 244 -586 292 -68 15 -355 28 -420 19z m1225 -425 c0 -77 -4
-118 -10 -114 -6 4 -10 55 -10 121 0 69 4 114 10 114 6 0 10 -47 10 -121z
m-84 -1266 c-10 -59 -13 -57 -29 25 -6 29 -4 32 17 32 22 0 22 -1 12 -57z"/>
<path d="M782 1780 c-126 -77 -74 -280 71 -280 154 0 213 191 87 278 -43 29
-112 30 -158 2z m110 -10 c56 -16 88 -60 88 -122 0 -44 -4 -54 -34 -84 -29
-29 -41 -34 -80 -34 -64 0 -92 16 -117 66 -32 68 -5 139 65 170 38 16 33 16
78 4z"/>
<path d="M876 1665 l-48 -45 -20 25 c-11 14 -24 25 -29 25 -18 0 -8 -27 21
-55 l29 -28 61 53 c33 28 60 56 60 61 0 20 -27 6 -74 -36z"/>
<path d="M1112 1750 c3 -20 10 -21 371 -23 l367 -2 0 23 0 22 -371 0 c-367 0
-370 0 -367 -20z"/>
<path d="M1110 1650 c0 -20 7 -20 370 -20 363 0 370 0 370 20 0 20 -7 20 -370
20 -363 0 -370 0 -370 -20z"/>
<path d="M1110 1560 c0 -20 6 -20 266 -20 247 0 265 1 262 18 -3 16 -25 17
-266 20 -257 2 -262 2 -262 -18z"/>
<path d="M805 1296 c-56 -26 -88 -70 -93 -128 -3 -44 0 -59 20 -87 37 -55 71
-75 128 -75 56 0 91 20 128 74 76 112 -60 273 -183 216z m115 -31 c41 -21 60
-53 60 -103 0 -58 -21 -96 -66 -117 -69 -33 -148 -1 -172 70 -36 107 77 202
178 150z"/>
<path d="M882 1174 l-53 -46 -24 22 c-36 34 -42 18 -10 -24 l27 -36 37 30 c82
67 91 76 91 88 0 20 -13 14 -68 -34z"/>
<path d="M1110 1250 c0 -20 7 -20 370 -20 363 0 370 0 370 20 0 20 -7 20 -370
20 -363 0 -370 0 -370 -20z"/>
<path d="M1110 1160 c0 -20 7 -20 370 -20 363 0 370 0 370 20 0 20 -7 20 -370
20 -363 0 -370 0 -370 -20z"/>
<path d="M1110 1060 c0 -19 7 -20 265 -20 258 0 265 1 265 20 0 19 -7 20 -265
20 -258 0 -265 -1 -265 -20z"/>
<path d="M782 790 c-72 -44 -95 -142 -48 -211 81 -119 261 -73 273 70 11 121
-122 204 -225 141z m128 -16 c49 -20 70 -55 70 -118 0 -36 -6 -52 -28 -77 -24
-27 -38 -33 -83 -37 -48 -4 -59 -1 -86 22 -92 77 -46 215 74 225 7 1 31 -6 53
-15z"/>
<path d="M877 678 l-48 -41 -23 22 c-12 11 -25 21 -29 21 -16 0 -5 -28 22 -54
l30 -28 60 53 c34 29 61 57 61 61 0 18 -28 5 -73 -34z"/>
<path d="M1110 760 c0 -20 7 -20 370 -20 363 0 370 0 370 20 0 20 -7 20 -370
20 -363 0 -370 0 -370 -20z"/>
<path d="M1110 660 c0 -20 7 -20 370 -20 363 0 370 0 370 20 0 20 -7 20 -370
20 -363 0 -370 0 -370 -20z"/>
<path d="M1110 570 c0 -19 7 -20 265 -20 258 0 265 1 265 20 0 19 -7 20 -265
20 -258 0 -265 -1 -265 -20z"/>
</g>
</svg>
